<svg width="96" height="96" xmlns="http://www.w3.org/2000/svg" xmlns:xlink="http://www.w3.org/1999/xlink" overflow="hidden"><defs><clipPath id="clip0"><rect x="532" y="95" width="96" height="96"/></clipPath></defs><g clip-path="url(#clip0)" transform="translate(-532 -95)"><path d="M540 115 540 171 620 171 620 115 540 115ZM581.4 149.9C580.6 150.7 579.4 150.7 578.6 149.9L549 121 611.1 121 581.4 149.9ZM565.5 142.7 546 162.3 546 123.6 565.5 142.7ZM568.4 145.5 575.9 152.8C577.1 153.9 578.6 154.5 580.1 154.5 581.6 154.5 583.1 153.9 584.3 152.8L591.8 145.5 611.2 165 548.9 165 568.4 145.5ZM594.5 142.7 614 123.7 614 162.2 594.5 142.7Z" fill="#444A4F"/></g></svg>