<svg width="96" height="96" xmlns="http://www.w3.org/2000/svg" xmlns:xlink="http://www.w3.org/1999/xlink" overflow="hidden"><defs><clipPath id="clip0"><rect x="289" y="95" width="96" height="96"/></clipPath></defs><g clip-path="url(#clip0)" transform="translate(-289 -95)"><path d="M306.4 112C304.511 112.011 302.989 113.551 303 115.44 303 115.44 303 115.44 303 115.44L303 156.78 303 156.78C302.989 158.669 304.511 160.209 306.4 160.22 306.4 160.22 306.4 160.22 306.4 160.22L316.6 160.22 316.6 174 330.2 160.22 367.6 160.22C369.489 160.209 371.011 158.669 371 156.78 371 156.78 371 156.78 371 156.78L371 115.44 371 115.44C371.011 113.551 369.489 112.011 367.6 112 367.6 112 367.6 112 367.6 112ZM348 136C348 133.239 350.239 131 353 131 355.761 131 358 133.239 358 136 358 138.761 355.761 141 353 141 350.239 141 348 138.761 348 136ZM332 136C332 133.239 334.239 131 337 131 339.761 131 342 133.239 342 136 342 138.761 339.761 141 337 141 334.239 141 332 138.761 332 136ZM316 136C316 133.239 318.239 131 321 131 323.761 131 326 133.239 326 136 326 138.761 323.761 141 321 141 318.239 141 316 138.761 316 136Z" fill="#444A4F"/></g></svg>