<svg width="96" height="96" xmlns="http://www.w3.org/2000/svg" xmlns:xlink="http://www.w3.org/1999/xlink" overflow="hidden"><defs><clipPath id="clip0"><rect x="411" y="90" width="96" height="96"/></clipPath></defs><g clip-path="url(#clip0)" transform="translate(-411 -90)"><path d="M448 130.08C448.538 129.521 448.84 128.776 448.84 128 448.843 127.212 448.53 126.455 447.97 125.9L438.49 116.41C437.93 115.85 437.172 115.533 436.38 115.53 435.592 115.536 434.837 115.852 434.28 116.41L433.23 117.47 446.91 131.12Z" fill="#444A4F"/><path d="M461.75 154.36C461.177 154.943 460.24 154.95 459.657 154.377 459.651 154.371 459.646 154.366 459.64 154.36L442.64 137.36C442.055 136.774 442.055 135.826 442.64 135.24L444.76 133.18 431.13 119.56C430.25 120.44 429.39 121.3 428.83 121.83 427.458 123.112 426.638 124.875 426.54 126.75 426.416 129.808 426.962 132.855 428.14 135.68 429.268 138.211 430.652 140.62 432.27 142.87 437.896 151.311 445.012 158.658 453.27 164.55 454.649 165.57 456.099 166.489 457.61 167.3 461.025 169.095 464.766 170.183 468.61 170.5 471.24 170.691 473.814 169.68 475.61 167.75L477.49 165.87 463.81 152.24Z" fill="#444A4F"/><path d="M480.63 158.51 471.15 149C469.981 147.843 468.099 147.843 466.93 149L465.93 150.08 479.57 163.78 480.63 162.78C481.787 161.611 481.787 159.729 480.63 158.56Z" fill="#444A4F"/><path d="M473.14 140 469.14 140C468.706 134.263 464.602 129.471 459 128.16L459 124.08C466.826 125.481 472.673 132.063 473.14 140Z" fill="#444A4F"/><path d="M482.7 138C482.7 138.67 482.7 139.34 482.61 140L478.61 140C478.679 139.336 478.712 138.668 478.71 138 478.693 127.123 469.877 118.311 459 118.3L459 114.3C472.085 114.311 482.689 124.915 482.7 138Z" fill="#444A4F"/><path d="M493 138C493 138.67 493 139.34 492.93 140L488.93 140C488.93 139.34 489.01 138.67 489.01 138 489.01 121.984 476.026 109 460.01 109 460.007 109 460.003 109 460 109 459.66 109 459.33 109 459 109L459 105 460 105C478.225 105 493 119.775 493 138Z" fill="#444A4F"/></g></svg>