<svg width="96" height="96" xmlns="http://www.w3.org/2000/svg" xmlns:xlink="http://www.w3.org/1999/xlink" overflow="hidden"><defs><clipPath id="clip0"><rect x="167" y="75" width="96" height="96"/></clipPath></defs><g clip-path="url(#clip0)" transform="translate(-167 -75)"><path d="M217 144.2 217 149.5 213 149.5 213 144.2C210.7 143.4 209 141.2 209 138.5 209 135.2 211.7 132.5 215 132.5 218.3 132.5 221 135.2 221 138.5 221 141.1 219.3 143.3 217 144.2ZM200 107.5C200 99.2 206.7 92.5 215 92.5 223.3 92.5 230 99.2 230 107.5L230 118.6 215 117.5 200 118.6 200 107.5ZM236 119 236 107.5C236 95.9 226.6 86.5 215 86.5 203.4 86.5 194 95.9 194 107.5L194 119 187 119.5 187 157.5 215 159.5 243 157.5 243 119.5 236 119Z" fill="#444A4F"/></g></svg>